<?xml version="1.0" ?><!DOCTYPE svg  PUBLIC '-//W3C//DTD SVG 1.1//EN'  'http://www.w3.org/Graphics/SVG/1.1/DTD/svg11.dtd'><svg enable-background="new 0 0 512 512" id="Layer_1" version="1.1" viewBox="0 0 512 512" xml:space="preserve" xmlns="http://www.w3.org/2000/svg" xmlns:xlink="http://www.w3.org/1999/xlink"><g><g><g><path d="M397.8,440.1c0,24.4-18.9,44.4-42.8,46.1H166.7c-21.5,0-38.9-17.4-38.9-38.9c0-17,10.9-31.4,26-36.7     c-2.1-6.6-3.2-13.7-3.2-21c0-39.1,31.7-70.8,70.8-70.8c32.3,0,59.6,21.7,68,51.3c6.5-4.9,14.5-7.7,23.3-7.7     c18.9,0,34.7,13.5,38.2,31.5c0.2,0,0.5,0,0.7,0C377.1,393.9,397.8,414.6,397.8,440.1z" fill="#CDCDCE"/><g><path d="M390.3,440.1c-0.3,18.6-15.4,38.6-35.4,38.6c-5.9,0-11.9,0-17.8,0c-29.5,0-59.1,0-88.6,0c-25.3,0-50.5,0-75.8,0      c-10.5,0-20-1.4-28.1-9.2c-16.2-15.7-9.5-43.9,11.3-51.6c3.8-1.4,6.5-5.1,5.2-9.2c-10-33.5,8.4-69.2,42-79.6      c33.5-10.4,69.3,9.9,79.1,43.1c1.3,4.3,7,7.4,11,4.5c19.4-13.9,45.5-4.1,50.4,19.3c0.7,3.2,4.1,5.6,7.2,5.5      C372.5,401.1,390,418.6,390.3,440.1c0.1,9.7,15.1,9.7,15,0c-0.4-29.5-24.6-54.1-54.4-53.7c2.4,1.8,4.8,3.7,7.2,5.5      c-6.8-32.3-45.5-47.5-72.4-28.3c3.7,1.5,7.3,3,11,4.5c-12.2-40.9-55-65-96.3-53.9c-42.2,11.3-66.1,57.1-53.8,98.4      c1.7-3.1,3.5-6.2,5.2-9.2c-23.5,8.7-36.8,33.6-29.4,57.9c5.9,19.3,24.7,32.3,44.6,32.3c20.3,0,40.6,0,60.9,0      c31.4,0,62.9,0,94.3,0c9.5,0,19,0,28.5,0c13.4,0,25.7-4.5,36.1-13.1c11.8-9.8,18.2-25.3,18.4-40.5      C405.5,430.4,390.5,430.4,390.3,440.1z"/></g></g><g><g><path d="M281.4,401.2c0.2-10.6,5.1-19.4,13.4-25.8c3.2-2.5,2.6-8,0-10.6c-3.2-3.2-7.4-2.5-10.6,0c-11.3,8.8-17.5,22.2-17.8,36.4      C266.2,410.9,281.2,410.9,281.4,401.2L281.4,401.2z"/></g></g><g><g><path d="M348.2,493.7c2.3,0.2,4.5,0.2,6.8,0c4.1-0.3,7.5-3.2,7.5-7.5c0-3.9-3.4-7.8-7.5-7.5c-2.3,0.2-4.5,0.2-6.8,0      c-4.1-0.3-7.5,3.6-7.5,7.5C340.7,490.5,344.1,493.4,348.2,493.7L348.2,493.7z"/></g></g><g><g><path d="M155.8,417.9c20.6-6.7,41.8,7.5,42.2,29.4c0.2,9.7,15.2,9.7,15,0c-0.6-31.3-31.2-53.7-61.2-43.9      C142.7,406.4,146.6,420.9,155.8,417.9L155.8,417.9z"/></g></g></g><g><g><g><path d="M402,163.9c0,9.3-3.9,17.9-13.1,21.4c-5.1,2-11.1,1.3-16.5,1.3c-7.8,0-15.6,0-23.4,0c-6.2,0-12.3-0.2-18.4,1.5      c-16.7,4.6-25.4,20.5-25.4,36.9c0,10.5,0,21,0,31.4c0,35.3,0,70.6,0,106c0,9.7,15,9.7,15,0c0-46.4,0-92.8,0-139.2      c0-10.6,6.5-18.9,17-21.3c2.9-0.7,6.5-0.3,9.5-0.3c5.5,0,10.9,0,16.4,0c9.3,0,19.5,1,28.5-1.5c16.4-4.5,25.4-20.1,25.4-36.3      C417,154.2,402,154.2,402,163.9L402,163.9z"/></g></g></g><g><path d="M177.4,25.7H34.2c-8,0-14.4,6.5-14.4,14.5v109.3c0,8,6.5,14.5,14.4,14.5H52c1.1-1.5,2.2-2.8,2.2-3.1    c0-14.6,9.3-51.7,51.7-51.7c28.5,0,51.7,23.1,51.7,51.7c0,0.3,1.1,1.7,2.4,3.1h17.6c8,0,14.5-6.5,14.5-14.5V40.1    C191.9,32.1,185.4,25.7,177.4,25.7z M105.8,108.4c-14.4,0-26.1-11.7-26.1-26.1s11.7-26.1,26.1-26.1c14.4,0,26.1,11.7,26.1,26.1    S120.2,108.4,105.8,108.4z" fill="#CDCDCE"/><g><path d="M105.8,100.9c-10.3-0.3-18.3-8.2-18.6-18.6C87,72,95.9,64,105.8,63.8c10.3-0.3,18.3,8.6,18.6,18.6     C124.6,92.7,115.8,100.7,105.8,100.9c-9.7,0.3-9.7,15.3,0,15c18.6-0.5,33.1-15,33.6-33.6c0.5-18.6-15.7-33.1-33.6-33.6     c-18.6-0.5-33.1,15.7-33.6,33.6c-0.5,18.6,15.7,33.1,33.6,33.6C115.5,116.2,115.5,101.2,105.8,100.9z"/><path d="M177.4,18.2c-47.1,0-94.1,0-141.2,0c-13.9,0-23.9,9.6-23.9,23.6c0,11.1,0,22.3,0,33.4c0,24.7,0,49.5,0,74.2     c0,12.4,10,21.4,21.9,22c5.8,0.3,11.7,0,17.5,0c5.3,0,9.9-6.1,10-11.2c0-1.2,0.1-2.3,0.2-3.5c0-0.2,0.3-2.4,0-0.6     c0.1-0.9,0.3-1.9,0.5-2.8c1.3-7.1,3.6-12.9,7.4-18.8c10.2-16.1,31.2-21,48.9-15.9c9.9,2.8,18.5,9.6,24.2,18.1     c2.8,4.3,4.7,9,6,13.9c0.6,2.5,0.9,4.9,1.1,7.4c0.3,4.2,0.9,6.5,3.5,9.8c4.5,5.8,15.3,3.6,21.8,3.6c10.9,0,19.7-5.3,23.3-15.9     c1.2-3.4,0.8-7.4,0.8-11c0-5.4,0-10.7,0-16.1c0-28.2,0-56.4,0-84.7c0-2.4,0-4.7-0.3-7C197.5,25.8,188.1,18.7,177.4,18.2     c-9.7-0.5-9.6,14.5,0,15c9.8,0.5,7,16.1,7,22.6c0,15.3,0,30.7,0,46c0,13.6,0,27.2,0,40.8c0,2.3,0,4.6,0,6.8c0,8.6-10.6,7-16.2,7     c-2.8,0-5.5,0-8.3,0c1.8,0.7,3.5,1.5,5.3,2.2c-0.7-0.4-1.1-0.9-1.2-1.6c0.3,1.3,0.7,2.5,1,3.8c-0.2-18.1-8.3-35.4-22.7-46.5     C127,102.4,107.6,99.1,89,103.6c-25.6,6.1-42.1,31.6-42.3,57.2c0.3-1.3,0.7-2.5,1-3.8c-0.3,0.6-0.6,1.1-1,1.6     c1.8-0.7,3.5-1.5,5.3-2.2c-5.8,0-11.6,0-17.5,0c-5.2,0-7.2-4.1-7.2-8.6c0-11.1,0-22.3,0-33.4c0-24.7,0-49.5,0-74.2     c0-9.1,12.3-7,18.2-7c13.4,0,26.7,0,40.1,0c28.4,0,56.8,0,85.2,0c2.2,0,4.4,0,6.7,0C187.1,33.2,187.1,18.2,177.4,18.2z"/></g></g><g><path d="M461.2,161.9c0,0.7,0,1.3,0,2H357.9c0-0.7-0.1-1.3-0.1-2c0-28.5,23.1-51.7,51.7-51.7    C438,110.2,461.2,133.3,461.2,161.9z" fill="#88C080"/><g><path d="M453.7,161.9c0,0.7,0,1.3,0,2c2.5-2.5,5-5,7.5-7.5c-34.4,0-68.8,0-103.2,0c2.5,2.5,5,5,7.5,7.5     c-1-24.5,18.3-45.2,42.7-46.2C433,116.7,453.4,137.4,453.7,161.9c0.1,9.7,15.1,9.7,15,0c-0.4-33-27.5-59.6-60.6-59.2     c-32.3,0.4-59,29-57.7,61.2c0.2,4.1,3.3,7.5,7.5,7.5c34.4,0,68.8,0,103.2,0c4.2,0,7.3-3.4,7.5-7.5c0-0.7,0.1-1.3,0-2     C468.8,152.2,453.8,152.2,453.7,161.9z"/></g></g><g><path d="M477.8,25.7H334.6c-8,0-14.5,6.5-14.5,14.5v109.3c0,8,6.5,14.5,14.5,14.5h23.3c0-0.7-0.1-1.3-0.1-2    c0-28.5,23.1-51.7,51.7-51.7c28.5,0,51.7,23.1,51.7,51.7c0,0.7,0,1.3,0,2h16.7c8,0,14.4-6.5,14.4-14.5V40.1    C492.2,32.1,485.8,25.7,477.8,25.7z M409.5,109.5c-14.4,0-26.1-11.7-26.1-26.1s11.7-26.1,26.1-26.1c14.4,0,26.1,11.7,26.1,26.1    S423.9,109.5,409.5,109.5z" fill="#CDCDCE"/><g><path d="M409.5,102c-10.3-0.3-18.3-8.2-18.6-18.6c-0.3-10.3,8.6-18.3,18.6-18.6c10.3-0.3,18.3,8.6,18.6,18.6     C428.3,93.8,419.5,101.8,409.5,102c-9.7,0.3-9.7,15.3,0,15c18.6-0.5,33.1-15,33.6-33.6c0.5-18.6-15.7-33.1-33.6-33.6     c-18.6-0.5-33.1,15.7-33.6,33.6c-0.5,18.6,15.7,33.1,33.6,33.6C419.2,117.3,419.2,102.3,409.5,102z"/><path d="M477.8,18.2c-47.1,0-94.1,0-141.2,0c-13.9,0-23.9,9.6-23.9,23.6c0,11.1,0,22.3,0,33.4c0,24.7,0,49.5,0,74.2     c0,12.9,10.8,22,23.2,22c7.3,0,14.7,0,22,0c4,0,7.7-3.4,7.5-7.5c-1-25.1,19.1-45.8,44.1-46.2c25-0.3,45.1,21.6,44.1,46.2     c-0.2,4.1,3.5,7.5,7.5,7.5c5.6,0,11.1,0,16.7,0c12,0,21.9-10.1,21.9-22c0-8.6,0-17.3,0-25.9c0-27.2,0-54.4,0-81.6     C499.7,28.9,491,18.8,477.8,18.2c-9.7-0.5-9.6,14.5,0,15c9.8,0.5,6.9,16.1,6.9,22.6c0,15.3,0,30.7,0,46c0,13.6,0,27.2,0,40.8     c0,2.3,0,4.6,0,6.8c0,8.8-11.1,7-16.8,7c-2.3,0-4.6,0-6.8,0c2.5,2.5,5,5,7.5,7.5c1.3-33.3-26.3-60.7-59.1-61.2     c-32.9-0.4-60.4,28.5-59.1,61.2c2.5-2.5,5-5,7.5-7.5c-6.2,0-12.5,0-18.7,0c-5.1,0-11.6-0.2-11.6-7.1c0-9.2,0-18.4,0-27.6     c0-26.8,0-53.6,0-80.4c0-8.8,7.7-8.1,14.1-8.1c12.2,0,24.5,0,36.7,0c29.6,0,59.1,0,88.7,0c3.6,0,7.1,0,10.7,0     C487.5,33.2,487.5,18.2,477.8,18.2z"/></g></g><g><g><g><path d="M98.3,163.9c0,22.2,16,37.8,38.1,37.8c6.4,0,12.8-0.1,19.2,0c10.1,0.2,18.3,9.3,19,19c0.6,8.2,0,16.7,0,24.9      c0,16,0,32,0,48c0,12.4,0,24.7,0,37.1c0,9.7,15,9.7,15,0c0-24.2,0-48.3,0-72.5c0-11.4,0-22.8,0-34.2c0-19.6-13.1-34.9-32.7-37.3      c-7.5-0.9-15.6-0.1-23.2-0.1c-13,0-20.5-10.7-20.5-22.8C113.3,154.2,98.3,154.2,98.3,163.9L98.3,163.9z"/></g></g></g><g><path d="M91.9,290.2v20.5c0,8-6.5,14.5-14.5,14.5H40.1c-8,0-14.5-6.5-14.5-14.5v-20.5c0-8,6.5-14.5,14.5-14.5h37.3    C85.4,275.8,91.9,282.3,91.9,290.2z" fill="#6ABFE2"/><g><path d="M84.4,290.2c0,6.2,0,12.3,0,18.5c0,5.9-3.1,9-9,9c-7,0-14,0-21.1,0c-4.8,0-10.2,0.7-15,0c-8-1.2-6.2-11-6.2-16.7     c0-5.6-1.9-15.1,4.9-17.4c4.4-1.5,10.9-0.3,15.4-0.3c7.2,0,14.3,0,21.5,0C79.6,283.3,84.1,284.6,84.4,290.2     c0.5,9.6,15.5,9.7,15,0c-0.6-12-9.7-22-22.1-22c-5.7,0-11.4,0-17.1,0c-6.4,0-12.9,0-19.3,0c-10.6,0-19.7,6.8-22.2,17.2     c-1.6,6.6-0.5,14.4-0.5,21.1c0,9.8,2.5,18.4,11.6,23.6c5.8,3.3,12.8,2.6,19.1,2.6c7.6,0,15.2,0,22.9,0c3.5,0,6.9,0,10.4-0.5     c8.3-1.2,14.8-8.9,16.7-16.7c1-4.3,0.5-9.2,0.5-13.5c0-3.9,0-7.8,0-11.8C99.4,280.6,84.4,280.6,84.4,290.2z"/></g></g><g><path d="M286.3,187.9v20.5c0,8-6.5,14.5-14.5,14.5h-37.3c-8,0-14.5-6.5-14.5-14.5v-20.5c0-8,6.5-14.5,14.5-14.5    h37.3C279.8,173.5,286.3,179.9,286.3,187.9z" fill="#6ABFE2"/><g><path d="M278.8,187.9c0,6.2,0,12.3,0,18.5c0,6-3.1,9-9,9c-7,0-14,0-21.1,0c-4.8,0-10.2,0.7-15,0c-8-1.2-6.2-11-6.2-16.7     c0-5.6-1.9-15.1,4.9-17.4c4.4-1.5,10.9-0.3,15.4-0.3c7.2,0,14.3,0,21.5,0C274,181,278.6,182.3,278.8,187.9c0.5,9.6,15.5,9.7,15,0     c-0.6-12-9.7-22-22.1-22c-5.7,0-11.4,0-17.1,0c-6.4,0-12.9,0-19.3,0c-10.6,0-19.7,6.8-22.2,17.2c-1.6,6.6-0.5,14.4-0.5,21.1     c0,9.8,2.5,18.4,11.6,23.6c5.8,3.3,12.8,2.6,19.1,2.6c7.6,0,15.2,0,22.9,0c3.5,0,6.9,0,10.4-0.5c8.3-1.2,14.8-8.9,16.7-16.7     c1-4.3,0.5-9.2,0.5-13.5c0-3.9,0-7.8,0-11.8C293.8,178.2,278.8,178.2,278.8,187.9z"/></g></g><g><g><g><path d="M245.7,222.9c0,6.5-0.2,13,0,19.5c0.5,14.5,12.5,26.7,26.8,28c13.2,1.2,26.9,0.2,40.2,0.2c9.7,0,9.7-15,0-15      c-12.2,0-24.4,0-36.6,0c-8.3,0-15.4-6-15.4-14.7c0-6,0-12.1,0-18.1C260.7,213.2,245.7,213.2,245.7,222.9L245.7,222.9z"/></g></g></g><g><g><g><path d="M91.9,308c11.1,0,20.8-0.2,29.8-7.8c5.5-4.6,8.8-12,9.4-19c0.6-6.2,1.3-11.4,7-15.1c5.9-3.9,15.8-2.2,22.4-2.2      c7.2,0,14.4,0,21.6,0c9.7,0,9.7-15,0-15c-6.9,0-13.7,0-20.6,0c-7.9,0-16.7-0.9-24.4,1.3c-7,2-12.7,7-16.6,13      c-4.2,6.3-3.1,13.2-5,20c-3.1,10.8-14.8,9.9-23.6,9.9C82.2,293,82.2,308,91.9,308L91.9,308z"/></g></g></g><g><path d="M469.2,265.8v20.5c0,8-6.5,14.5-14.4,14.5h-37.4c-8,0-14.5-6.5-14.5-14.5v-20.5c0-8,6.5-14.4,14.5-14.4    h37.4C462.8,251.3,469.2,257.8,469.2,265.8z" fill="#6ABFE2"/><g><path d="M461.7,265.8c0,6.2,0,12.4,0,18.5c0,5.9-3.1,9-9,9c-7,0-14,0-21.1,0c-4.8,0-10.2,0.7-15,0c-8-1.2-6.2-11-6.2-16.7     c0-5.6-1.9-15.1,4.9-17.4c4.4-1.5,10.9-0.3,15.4-0.3c7.2,0,14.3,0,21.5,0C456.9,258.8,461.5,260.2,461.7,265.8     c0.5,9.6,15.5,9.7,15,0c-0.6-12-9.7-21.9-22.1-21.9c-5.7,0-11.4,0-17.1,0c-6.4,0-12.9,0-19.3,0c-10.6,0-19.7,6.8-22.2,17.2     c-1.6,6.6-0.5,14.4-0.5,21.1c0,9.8,2.5,18.4,11.6,23.6c5.8,3.3,12.8,2.6,19.1,2.6c7.6,0,15.3,0,22.9,0c3.5,0,6.9,0,10.4-0.5     c8.3-1.2,14.8-8.9,16.7-16.7c1-4.3,0.5-9.2,0.5-13.5c0-3.9,0-7.8,0-11.8C476.7,256.1,461.7,256.1,461.7,265.8z"/></g></g><g><g><g><path d="M403,268.5c-11.1,0-20.8,0.2-29.8,7.8c-5.5,4.6-8.8,12-9.4,19c-0.6,6.2-1.3,11.4-7,15.1c-5.9,3.9-15.8,2.2-22.4,2.2      c-7.2,0-14.4,0-21.6,0c-9.7,0-9.7,15,0,15c6.9,0,13.7,0,20.6,0c7.9,0,16.7,0.9,24.4-1.3c7-2,12.7-7,16.6-13      c4.2-6.3,3.1-13.2,5-20c3.1-10.8,14.8-9.9,23.6-9.9C412.6,283.5,412.6,268.5,403,268.5L403,268.5z"/></g></g></g></g><g><circle cx="409.5" cy="83.5" fill="#FCBA6D" r="26.1"/><g><path d="M428.1,83.5c-0.3,10.3-8.2,18.3-18.6,18.6c-10.3,0.3-18.3-8.6-18.6-18.6c-0.3-10.3,8.6-18.3,18.6-18.6    C419.9,64.6,427.8,73.5,428.1,83.5c0.3,9.7,15.3,9.7,15,0c-0.5-18.6-15-33.1-33.6-33.6c-18.6-0.5-33.1,15.7-33.6,33.6    c-0.5,18.6,15.7,33.1,33.6,33.6c18.6,0.5,33.1-15.7,33.6-33.6C443.3,73.8,428.3,73.8,428.1,83.5z"/></g></g><g><path d="M159.8,163.9H52c1.1-1.5,2.2-2.8,2.2-3.1c0-14.6,9.3-51.7,51.7-51.7c28.5,0,51.7,23.1,51.7,51.7   C157.5,161.1,158.6,162.4,159.8,163.9z" fill="#DD8ABB"/><g><path d="M159.8,156.4c-36,0-71.9,0-107.9,0c1.8,4.3,3.5,8.5,5.3,12.8c2.6-3.4,4.3-5.7,4.4-10.1c0-0.8,0.1-1.6,0.2-2.4    c0.2-2.1-0.1,0.1,0.3-2c0.7-4.3,2.2-9.5,3.7-13c4.8-11,13.2-19.3,24.8-23c14.5-4.6,31.2-2,43.1,7.7c5.7,4.7,10.4,10.8,13.1,17.7    c1.4,3.5,2.4,7.3,2.9,11c0.3,2.4-0.1,5.2,0.6,7.5c0.7,2.5,2.7,4.5,4.3,6.4c6.2,7.5,16.7-3.2,10.6-10.6c-0.7-0.4-1.1-0.9-1.2-1.6    c0.3,1.3,0.7,2.5,1,3.8c-0.2-18.1-8.3-35.4-22.7-46.5C127,102.4,107.6,99.1,89,103.6c-25.6,6.1-42.1,31.6-42.3,57.2    c0.3-1.3,0.7-2.5,1-3.8c-0.3,0.6-0.6,1.1-1,1.6c-3.8,4.9-1.9,12.8,5.3,12.8c36,0,71.9,0,107.9,0    C169.5,171.4,169.5,156.4,159.8,156.4z"/></g></g><g><path d="M131.9,82.3c0,14.4-11.7,26.1-26.1,26.1c-14.4,0-26.1-11.7-26.1-26.1s11.7-26.1,26.1-26.1   C120.2,56.3,131.9,68,131.9,82.3z" fill="#FCBA6D"/><g><path d="M124.4,82.3c-0.3,10.3-8.2,18.3-18.6,18.6c-10.3,0.3-18.3-8.6-18.6-18.6C87,72,95.9,64,105.8,63.8    C116.2,63.5,124.1,72.4,124.4,82.3c0.3,9.7,15.3,9.7,15,0c-0.5-18.6-15-33.1-33.6-33.6c-18.6-0.5-33.1,15.7-33.6,33.6    c-0.5,18.6,15.7,33.1,33.6,33.6c18.6,0.5,33.1-15.7,33.6-33.6C139.6,72.7,124.6,72.7,124.4,82.3z"/></g></g></svg>