<?xml version="1.0" encoding="UTF-8" standalone="no"?>
<!-- Created with Inkscape (http://www.inkscape.org/) -->

<svg
   xmlns:dc="http://purl.org/dc/elements/1.1/"
   xmlns:cc="http://creativecommons.org/ns#"
   xmlns:rdf="http://www.w3.org/1999/02/22-rdf-syntax-ns#"
   xmlns:svg="http://www.w3.org/2000/svg"
   xmlns="http://www.w3.org/2000/svg"
   xmlns:sodipodi="http://sodipodi.sourceforge.net/DTD/sodipodi-0.dtd"
   xmlns:inkscape="http://www.inkscape.org/namespaces/inkscape"
   width="256"
   height="256"
   viewBox="0 0 256 256"
   id="svg7420"
   version="1.1"
   inkscape:version="0.91 r13725"
   sodipodi:docname="simpleToUse_active.svg">
  <defs
     id="defs7422" />
  <sodipodi:namedview
     id="base"
     pagecolor="#ffffff"
     bordercolor="#666666"
     borderopacity="1.0"
     inkscape:pageopacity="0.0"
     inkscape:pageshadow="2"
     inkscape:zoom="0.98994949"
     inkscape:cx="118.93707"
     inkscape:cy="166.61405"
     inkscape:document-units="px"
     inkscape:current-layer="layer1"
     showgrid="true"
     inkscape:showpageshadow="false"
     units="px"
     inkscape:snap-bbox="true"
     inkscape:bbox-paths="true"
     inkscape:bbox-nodes="true"
     inkscape:window-width="1366"
     inkscape:window-height="745"
     inkscape:window-x="-8"
     inkscape:window-y="-8"
     inkscape:window-maximized="1">
    <inkscape:grid
       type="xygrid"
       id="grid7968"
       empspacing="4" />
  </sodipodi:namedview>
  <metadata
     id="metadata7425">
    <rdf:RDF>
      <cc:Work
         rdf:about="">
        <dc:format>image/svg+xml</dc:format>
        <dc:type
           rdf:resource="http://purl.org/dc/dcmitype/StillImage" />
        <dc:title></dc:title>
      </cc:Work>
    </rdf:RDF>
  </metadata>
  <g
     inkscape:label="Layer 1"
     inkscape:groupmode="layer"
     id="layer1"
     transform="translate(0,-796.36216)">
    <g
       transform="matrix(0.04356705,0,0,0.04356705,-773.85972,-760.65885)"
       style="clip-rule:evenodd;fill-rule:evenodd;image-rendering:optimizeQuality;shape-rendering:geometricPrecision;text-rendering:geometricPrecision"
       id="g9178">
      <path
         class="fil0"
         d="m 18730,38676 c 0,-1088 882,-1970 1970,-1970 1089,0 1971,882 1971,1970 0,1089 -882,1971 -1971,1971 -1088,0 -1970,-882 -1970,-1971 z m 4174,0 c 0,-1217 -987,-2203 -2204,-2203 -1217,0 -2203,986 -2203,2203 0,1217 986,2204 2203,2204 1217,0 2204,-987 2204,-2204 z"
         id="path5859"
         inkscape:connector-curvature="0"
         style="fill:#149fb9" />
      <path
         class="fil2"
         d="m 19555,39178 c -283,0 -513,-230 -513,-512 0,-283 230,-513 513,-513 282,0 512,230 512,513 0,282 -230,512 -512,512 z"
         id="path5957"
         inkscape:connector-curvature="0"
         style="fill:#ef7f1a" />
      <path
         class="fil10"
         d="m 19555,38196 c 258,0 469,211 469,470 0,258 -211,469 -469,469 -259,0 -470,-211 -470,-469 0,-259 211,-470 470,-470 z m 0,-86 0,0 c -307,0 -556,249 -556,556 0,306 249,555 556,555 306,0 555,-249 555,-555 0,-307 -249,-556 -555,-556 z"
         id="path5965"
         inkscape:connector-curvature="0"
         style="fill:#fefefe;fill-rule:nonzero" />
      <path
         class="fil6"
         d="m 21838,39178 c -282,0 -512,-230 -512,-512 0,-283 230,-513 512,-513 283,0 513,230 513,513 0,282 -230,512 -513,512 z"
         id="path5979"
         inkscape:connector-curvature="0"
         style="fill:#7c99a4" />
      <path
         class="fil10"
         d="m 21838,38196 c 259,0 470,211 470,470 0,258 -211,469 -470,469 -258,0 -469,-211 -469,-469 0,-259 211,-470 469,-470 z m 0,-86 0,0 c -306,0 -555,249 -555,556 0,306 249,555 555,555 306,0 556,-249 556,-555 0,-307 -250,-556 -556,-556 z"
         id="path5993"
         inkscape:connector-curvature="0"
         style="fill:#fefefe;fill-rule:nonzero" />
      <path
         class="fil6"
         d="m 20719,37993 c -283,0 -512,-230 -512,-512 0,-283 229,-513 512,-513 283,0 512,230 512,513 0,282 -229,512 -512,512 z"
         id="path6061"
         inkscape:connector-curvature="0"
         style="fill:#7c99a4" />
      <path
         class="fil10"
         d="m 20719,37011 c 259,0 469,211 469,470 0,258 -210,469 -469,469 -259,0 -469,-211 -469,-469 0,-259 210,-470 469,-470 z m 0,-86 0,0 c -306,0 -555,250 -555,556 0,306 249,555 555,555 306,0 555,-249 555,-555 0,-306 -249,-556 -555,-556 z"
         id="path6063"
         inkscape:connector-curvature="0"
         style="fill:#fefefe;fill-rule:nonzero" />
      <path
         class="fil6"
         d="m 20167,37540 c -253,121 -460,322 -587,571 35,1 70,6 103,14 114,-209 290,-379 504,-486 -10,-31 -17,-65 -20,-99 z"
         id="path6087"
         inkscape:connector-curvature="0"
         style="fill:#7c99a4" />
      <path
         class="fil6"
         d="m 21842,38110 c -124,-244 -326,-442 -572,-563 -4,34 -11,67 -21,99 206,106 376,272 488,474 33,-7 67,-10 101,-10 2,0 3,0 4,0 z"
         id="path6089"
         inkscape:connector-curvature="0"
         style="fill:#7c99a4" />
      <path
         class="fil10"
         d="m 21939,38722 86,27 c -13,48 -35,84 -65,107 -31,23 -70,34 -116,34 -58,0 -106,-19 -143,-59 -38,-40 -56,-94 -56,-163 0,-72 18,-129 56,-169 37,-40 87,-60 148,-60 53,0 97,15 130,47 20,19 35,46 45,81 l -88,20 c -5,-22 -15,-40 -32,-53 -16,-13 -36,-20 -60,-20 -32,0 -58,12 -78,35 -21,23 -31,61 -31,113 0,55 10,94 30,118 20,23 46,35 78,35 23,0 43,-7 60,-22 17,-15 29,-39 36,-71 z"
         id="path6091"
         inkscape:connector-curvature="0"
         style="fill:#fefefe;fill-rule:nonzero" />
      <path
         class="fil10"
         d="m 20546,37238 174,0 c 35,0 61,1 78,4 17,3 32,9 45,18 14,9 25,21 34,36 9,16 13,33 13,52 0,20 -5,39 -16,56 -11,17 -26,30 -45,38 26,8 47,21 61,40 14,19 22,40 22,66 0,20 -5,39 -14,58 -10,18 -22,33 -38,45 -16,11 -36,18 -59,20 -15,2 -50,3 -107,3 l -148,0 0,-436 z m 88,72 0,0 0,101 58,0 c 34,0 55,0 64,-1 15,-2 27,-7 35,-16 9,-9 13,-20 13,-34 0,-13 -3,-24 -11,-33 -7,-8 -18,-13 -33,-15 -9,-1 -34,-2 -76,-2 l -50,0 z m 0,174 0,0 0,117 81,0 c 32,0 52,-1 61,-3 13,-2 24,-8 32,-17 8,-10 12,-22 12,-37 0,-14 -3,-25 -9,-34 -7,-9 -16,-16 -28,-20 -12,-4 -38,-6 -78,-6 l -71,0 z"
         id="path6093"
         inkscape:connector-curvature="0"
         style="fill:#fefefe;fill-rule:nonzero" />
      <path
         class="fil10"
         d="m 19776,38854 -96,0 -38,-99 -173,0 -36,99 -93,0 169,-434 93,0 174,434 z m -162,-172 0,0 -59,-161 -59,161 118,0 z"
         id="path6095"
         inkscape:connector-curvature="0"
         style="fill:#fefefe;fill-rule:nonzero" />
      <path
         class="fil6"
         d="m 20732,40250 c -53,-29 -95,-31 -148,-32 -26,-1 -52,-2 -81,-6 -33,-4 -75,-25 -116,-44 l -25,-12 c -16,-8 -52,-25 -70,-25 l -5,0 -7,-2 c -32,-16 -65,-23 -101,-23 -27,0 -51,3 -74,7 -20,3 -39,6 -56,6 -58,0 -90,-34 -106,-112 l -2,-11 7,-8 c 66,-81 170,-91 243,-91 42,0 84,4 122,7 25,2 49,4 70,5 -48,-67 -149,-208 -216,-302 l -443,-521 c -18,-21 -27,-48 -25,-75 3,-28 16,-54 37,-72 19,-15 43,-24 67,-24 31,0 60,13 80,37 l 280,331 c -5,-13 -6,-27 -5,-41 2,-28 15,-53 37,-71 18,-16 42,-24 67,-24 31,0 60,13 80,37 8,10 20,24 34,40 -26,-42 -17,-97 21,-129 18,-15 40,-23 63,-23 29,0 57,12 78,34 l 2,2 1,-4 c 7,-14 16,-26 28,-36 17,-15 39,-23 62,-23 28,0 56,12 78,33 l 267,254 c 29,29 48,50 60,70 14,24 28,51 42,84 11,27 21,54 32,82 31,82 63,166 123,241 l 13,17 -16,14 c -25,23 -60,37 -94,51 -17,7 -33,14 -47,21 -175,91 -212,151 -275,250 -15,24 -32,51 -52,81 l -12,17 -18,-10 z"
         id="path6097"
         inkscape:connector-curvature="0"
         style="fill:#7c99a4" />
      <path
         class="fil10"
         d="m 19803,38938 c 23,0 46,10 62,29 l 482,570 c 10,-7 18,-17 25,-30 l -172,-204 c -29,-34 -25,-85 10,-114 15,-13 34,-19 52,-19 23,0 46,10 62,29 18,22 160,189 176,192 1,0 3,0 4,0 1,0 2,0 3,0 13,0 28,-8 17,-25 l -121,-144 c -28,-33 -24,-82 9,-109 14,-12 31,-18 48,-18 22,0 45,9 61,27 l 156,161 c 5,4 9,8 13,8 3,0 7,-2 11,-6 19,-16 6,-23 -6,-35 l -132,-136 c 4,-11 11,-21 21,-29 14,-11 30,-17 47,-17 22,0 44,10 62,27 l 267,254 c 27,27 46,47 56,64 15,26 28,54 40,82 45,106 76,225 159,328 -34,30 -94,46 -137,69 -225,116 -233,189 -335,338 -83,-47 -146,-29 -237,-41 -36,-4 -88,-32 -134,-54 -32,-15 -61,-27 -80,-27 0,0 -1,0 -2,0 -40,-20 -78,-26 -111,-26 -52,0 -96,14 -130,14 -40,0 -68,-18 -83,-94 54,-66 139,-81 225,-81 76,0 153,12 211,12 9,0 18,-1 26,-1 0,0 0,0 0,0 0,0 0,0 0,0 0,0 0,0 0,0 -6,-8 -210,-293 -243,-339 -3,-4 -4,-6 -4,-6 0,0 1,2 4,6 l -444,-522 c -29,-34 -24,-85 10,-114 15,-13 34,-19 52,-19 z m 0,-46 0,0 c -30,0 -59,10 -82,30 -26,22 -42,53 -45,87 -2,34 8,67 30,92 l 443,520 c 94,132 151,213 187,262 -7,-1 -14,-1 -21,-2 -38,-3 -81,-7 -124,-7 -77,0 -189,10 -261,99 l -14,17 5,21 c 11,57 36,131 128,131 19,0 38,-3 59,-6 23,-4 46,-7 71,-7 33,0 62,6 91,21 l 11,5 11,-1 c 5,0 19,3 60,23 8,3 17,7 25,12 42,20 86,41 123,46 31,4 58,5 83,6 52,1 90,3 138,29 l 36,21 24,-35 c 21,-30 38,-58 53,-82 60,-96 96,-153 265,-241 13,-7 29,-14 46,-20 35,-15 73,-30 101,-56 l 32,-29 -27,-34 c -58,-72 -89,-154 -119,-234 -11,-27 -22,-56 -33,-83 -15,-34 -28,-62 -43,-87 -13,-22 -33,-44 -63,-74 l -268,-255 c -26,-25 -60,-39 -94,-39 -29,0 -55,10 -77,28 -8,6 -15,14 -20,22 -22,-15 -48,-23 -74,-23 -29,0 -56,9 -78,28 -22,19 -37,45 -42,73 -22,-17 -49,-26 -78,-26 -30,0 -59,10 -82,30 -21,17 -35,39 -41,65 l -238,-282 c -25,-29 -60,-45 -98,-45 z"
         id="path6099"
         inkscape:connector-curvature="0"
         style="fill:#fefefe;fill-rule:nonzero" />
    </g>
  </g>
</svg>
